# Blender 3.6.1
# www.blender.org
mtllib f10.mtl
o f10
v 0.003923 -0.001608 -0.001119
v 0.003961 -0.001621 -0.003119
v 0.003207 -0.001309 -0.001110
v 0.003312 0.000032 0.000055
v 0.002999 -0.002979 -0.001119
v 0.003031 -0.003013 -0.003119
v 0.006800 -0.002798 -0.003236
v 0.002468 -0.002448 -0.001111
v 0.003047 -0.001248 0.000063
v -0.003317 0.000009 0.000055
v -0.003066 -0.001241 0.000051
v -0.002340 -0.002338 0.000058
v -0.001273 -0.003040 0.000049
v 0.000016 -0.003294 0.000066
v 0.001251 -0.003041 0.000062
v 0.002342 -0.002313 0.000054
v 0.001620 -0.003901 -0.001119
v 0.001639 -0.003943 -0.003119
v 0.005209 -0.005186 -0.003238
v 0.006926 -0.002849 -0.005076
v 0.001326 -0.003187 -0.001110
v -0.003216 -0.001310 -0.001110
v -0.002462 -0.002439 -0.001110
v -0.001336 -0.003198 -0.001110
v -0.000003 -0.003479 -0.001110
v -0.000002 -0.004229 -0.001119
v -0.000003 -0.004270 -0.003119
v 0.002815 -0.006783 -0.003239
v 0.005296 -0.005278 -0.005076
v 0.010599 -0.004372 -0.005369
v -0.003924 -0.001605 -0.001119
v -0.003007 -0.002981 -0.001119
v -0.001626 -0.003899 -0.001119
v -0.001644 -0.003943 -0.003119
v 0.000006 -0.007345 -0.003237
v 0.002865 -0.006903 -0.005076
v 0.008109 -0.008091 -0.005369
v 0.010617 -0.004378 -0.007714
v 0.011067 -0.002224 -0.006226
v -0.003966 -0.001621 -0.003119
v -0.003036 -0.003013 -0.003119
v -0.002822 -0.006779 -0.003246
v -0.000003 -0.007476 -0.005076
v 0.004391 -0.010583 -0.005369
v 0.008122 -0.008106 -0.015832
v 0.009619 -0.006025 -0.013886
v 0.009613 -0.006020 -0.011617
v 0.009915 -0.005475 -0.009346
v -0.004986 -0.002883 -0.003119
v -0.004830 -0.005705 -0.003369
v -0.002867 -0.006894 -0.005076
v -0.000001 -0.011476 -0.005369
v 0.004380 -0.010583 -0.018131
v -0.004986 -0.002883 -0.003619
v -0.004969 -0.005928 -0.005119
v -0.004944 -0.010352 -0.005369
v 0.000385 -0.011242 -0.019096
v -0.004977 -0.010336 -0.020300
v -0.007969 -0.006029 -0.007471
v -0.007804 -0.006028 -0.020891
v -0.007957 -0.008126 -0.020855
v -0.005000 -0.006008 -0.007469
v -0.004971 -0.010325 -0.007471
v -0.006899 -0.006030 -0.021994
v -0.007957 -0.008126 -0.007471
v -0.006894 -0.008518 -0.021988
v -0.005017 -0.006030 -0.022447
v -0.005018 -0.008508 -0.022445
v 0.002478 -0.007965 -0.020716
v 0.002467 -0.009179 -0.020718
v 0.005050 -0.006837 -0.019352
v 0.004554 -0.009177 -0.019703
v 0.005988 -0.006229 -0.018453
v 0.006781 -0.009261 -0.017434
v 0.005907 0.000026 -0.005770
v 0.005907 -0.004398 -0.007707
v 0.005907 -0.002224 -0.006215
v 0.005907 -0.006041 -0.011616
v 0.005907 -0.005489 -0.009340
v 0.004951 -0.005946 -0.007444
v 0.005180 -0.002883 -0.003119
v 0.004780 -0.005167 -0.005445
v 0.004241 0.000021 -0.001119
v 0.004288 0.000021 -0.003119
v 0.003481 0.000020 -0.001110
v 0.003923 0.001649 -0.001119
v 0.003961 0.001662 -0.003119
v 0.007364 0.000021 -0.003239
v 0.003207 0.001350 -0.001110
v 0.003312 0.000009 0.000055
v 0.002999 0.003020 -0.001119
v 0.003031 0.003054 -0.003119
v 0.006800 0.002839 -0.003236
v 0.007491 0.000021 -0.005076
v 0.002468 0.002489 -0.001111
v 0.003047 0.001289 0.000063
v -0.003317 0.000032 0.000055
v -0.003066 0.001282 0.000051
v -0.002340 0.002379 0.000058
v -0.001273 0.003081 0.000049
v 0.000016 0.003335 0.000066
v 0.001251 0.003082 0.000062
v 0.002342 0.002354 0.000054
v 0.001620 0.003942 -0.001119
v 0.001639 0.003984 -0.003119
v 0.005209 0.005227 -0.003238
v 0.006926 0.002891 -0.005076
v 0.011487 0.000022 -0.005369
v 0.001326 0.003228 -0.001110
v -0.003486 0.000021 -0.001110
v -0.003216 0.001351 -0.001110
v -0.002462 0.002480 -0.001110
v -0.001336 0.003239 -0.001110
v -0.000003 0.003520 -0.001110
v -0.000002 0.004270 -0.001119
v -0.000003 0.004311 -0.003119
v 0.002815 0.006824 -0.003239
v 0.005296 0.005319 -0.005076
v 0.010599 0.004413 -0.005369
v 0.011490 0.000021 -0.005671
v 0.011490 0.000021 -0.005671
v -0.004246 0.000020 -0.001119
v -0.003924 0.001646 -0.001119
v -0.003007 0.003023 -0.001119
v -0.001626 0.003940 -0.001119
v -0.001644 0.003984 -0.003119
v 0.000006 0.007386 -0.003237
v 0.002865 0.006944 -0.005076
v 0.008109 0.008132 -0.005369
v 0.010617 0.004419 -0.007714
v 0.011067 0.002266 -0.006226
v -0.004293 0.000021 -0.003119
v -0.003966 0.001662 -0.003119
v -0.003036 0.003054 -0.003119
v -0.002822 0.006820 -0.003246
v -0.000003 0.007517 -0.005076
v 0.004391 0.010624 -0.005369
v 0.008122 0.008148 -0.015832
v 0.009619 0.006066 -0.013886
v 0.009613 0.006061 -0.011617
v 0.009915 0.005517 -0.009346
v -0.005001 0.000021 -0.003119
v -0.004986 0.002924 -0.003119
v -0.004830 0.005746 -0.003369
v -0.002867 0.006935 -0.005076
v -0.000001 0.011517 -0.005369
v 0.004380 0.010624 -0.018131
v -0.004997 0.000020 -0.003625
v -0.004986 0.002924 -0.003619
v -0.004969 0.005969 -0.005119
v -0.004944 0.010393 -0.005369
v 0.000385 0.011283 -0.019096
v -0.004977 0.010378 -0.020300
v -0.007969 0.006070 -0.007471
v -0.007804 0.006069 -0.020891
v -0.007957 0.008167 -0.020855
v -0.005000 0.006049 -0.007469
v -0.004971 0.010366 -0.007471
v -0.006899 0.006071 -0.021994
v -0.007957 0.008167 -0.007471
v -0.006894 0.008560 -0.021988
v -0.005017 0.006071 -0.022447
v -0.005018 0.008549 -0.022445
v 0.002478 0.008007 -0.020716
v 0.002467 0.009220 -0.020718
v 0.005050 0.006878 -0.019352
v 0.004554 0.009218 -0.019703
v 0.005988 0.006270 -0.018453
v 0.006781 0.009302 -0.017434
v 0.005907 0.000015 -0.005770
v 0.005907 0.004439 -0.007707
v 0.005907 0.002265 -0.006215
v 0.005907 0.006082 -0.011616
v 0.005907 0.005530 -0.009340
v 0.004951 0.005987 -0.007444
v 0.005180 0.000021 -0.003119
v 0.005180 0.002924 -0.003119
v 0.004780 0.005208 -0.005445
vn 0.6864 -0.2844 0.6693
vn 0.6148 -0.2544 0.7466
vn 0.6657 -0.0000 0.7462
vn 0.7416 -0.0000 0.6708
vn 0.6069 -0.0001 0.7948
vn 0.5240 -0.5250 0.6707
vn 0.4698 -0.4710 0.7466
vn 0.7343 -0.0000 0.6788
vn 0.5631 -0.2324 0.7930
vn 0.9140 -0.3781 0.1473
vn 0.2844 -0.6851 0.6706
vn 0.2553 -0.6145 0.7465
vn 0.5192 -0.5194 0.6787
vn 0.6775 -0.2805 0.6799
vn 0.6628 -0.0000 0.7488
vn 0.2365 -0.5639 0.7912
vn 0.4250 -0.4249 0.7993
vn -0.6052 0.0001 0.7960
vn -0.5633 -0.2343 0.7923
vn -0.9149 -0.3787 0.1397
vn -0.4323 -0.4306 0.7922
vn -0.6995 -0.7011 0.1383
vn -0.2339 -0.5615 0.7937
vn -0.3806 -0.9133 0.1448
vn 0.0009 -0.6014 0.7989
vn 0.0065 -0.9889 0.1483
vn 0.3796 -0.9135 0.1463
vn -0.0001 -0.7430 0.6693
vn -0.0007 -0.6656 0.7463
vn 0.4685 -0.4689 0.7487
vn 0.6112 -0.2532 0.7499
vn 0.7607 0.0004 0.6491
vn -0.7417 -0.0001 0.6707
vn -0.6857 -0.2836 0.6704
vn -0.5253 -0.5250 0.6696
vn -0.2841 -0.6849 0.6710
vn -0.2676 -0.6138 0.7427
vn 0.2811 -0.6783 0.6789
vn 0.2539 -0.6120 0.7490
vn 0.7007 -0.3000 0.6473
vn -0.6485 -0.0000 0.7612
vn -0.5979 -0.2630 0.7572
vn -0.4674 -0.4836 0.7401
vn -0.0006 -0.7339 0.6792
vn -0.0014 -0.6619 0.7496
vn 0.2870 -0.7105 0.6425
vn 0.5348 -0.5462 0.6447
vn 0.8143 0.1116 -0.5696
vn -0.6929 -0.0508 0.7193
vn -0.6659 -0.4197 0.6168
vn -0.2440 -0.6741 0.6971
vn -0.2251 -0.6389 0.7357
vn -0.0070 -0.7737 0.6336
vn 0.5143 -0.3765 -0.7705
vn 0.7411 -0.5322 -0.4093
vn 0.3886 -0.8719 -0.2981
vn -0.7096 -0.0000 0.7046
vn -0.6883 -0.0000 -0.7254
vn -0.9619 0.2698 -0.0453
vn -0.6233 -0.5354 0.5699
vn 0.0564 -0.9325 -0.3567
vn -0.7059 -0.3413 0.6207
vn -0.5754 0.5873 0.5693
vn -0.7088 0.6486 -0.2773
vn 0.6898 0.1532 -0.7076
vn -0.5759 -0.7999 0.1690
vn -0.2749 -0.9001 -0.3381
vn -0.8801 -0.3772 -0.2883
vn -0.2994 0.9257 0.2312
vn -0.3957 0.6431 -0.6556
vn -0.5142 -0.4542 -0.7275
vn 0.0209 0.6733 -0.7390
vn 0.2451 0.5799 -0.7769
vn 0.2995 -0.3957 -0.8682
vn 0.2259 0.6812 -0.6964
vn 0.2539 0.7721 -0.5825
vn 0.8725 0.4572 -0.1726
vn 0.8179 -0.4607 -0.3446
vn -0.0214 -0.3742 -0.9271
vn -0.5394 0.6370 -0.5507
vn 0.7462 0.4801 -0.4612
vn -0.2644 0.9196 -0.2905
vn 0.8173 0.5583 -0.1426
vn -0.1793 0.9772 -0.1134
vn 0.8040 -0.0003 -0.5946
vn -0.6297 0.3459 -0.6956
vn -0.4172 0.8824 -0.2175
vn -0.7787 0.1801 -0.6010
vn -0.5379 0.2784 -0.7957
vn -0.6460 0.1442 -0.7496
vn -0.5085 0.7147 -0.4803
vn 0.6863 0.2851 0.6691
vn 0.5631 0.2323 0.7930
vn 0.5240 0.5250 0.6707
vn 0.6147 0.2543 0.7466
vn 0.4250 0.4249 0.7993
vn 0.9140 0.3780 0.1472
vn 0.2845 0.6852 0.6706
vn 0.4698 0.4710 0.7466
vn 0.6775 0.2805 0.6799
vn 0.5193 0.5194 0.6787
vn 0.2365 0.5639 0.7912
vn 0.7001 0.6982 0.1497
vn -0.9707 0.1964 0.1381
vn -0.9149 0.3787 0.1397
vn -0.5633 0.2344 0.7923
vn -0.6995 0.7011 0.1383
vn -0.4323 0.4306 0.7922
vn -0.3806 0.9133 0.1448
vn -0.2339 0.5615 0.7937
vn 0.0065 0.9889 0.1483
vn 0.0009 0.6014 0.7989
vn 0.3795 0.9136 0.1458
vn -0.0001 0.7430 0.6693
vn 0.2550 0.6147 0.7464
vn 0.6111 0.2532 0.7499
vn 0.4685 0.4689 0.7487
vn -0.6857 0.2835 0.6704
vn -0.5253 0.5250 0.6696
vn -0.2840 0.6851 0.6708
vn -0.2676 0.6138 0.7427
vn 0.2811 0.6783 0.6789
vn -0.0005 0.6657 0.7463
vn 0.2539 0.6120 0.7490
vn 0.7007 0.3000 0.6473
vn -0.4674 0.4836 0.7401
vn -0.0006 0.7339 0.6792
vn -0.0015 0.6619 0.7496
vn 0.5348 0.5462 0.6447
vn 0.2870 0.7105 0.6425
vn 0.8143 -0.1117 -0.5697
vn -0.5979 0.2630 0.7572
vn -0.6929 0.0508 0.7193
vn -0.6659 0.4197 0.6168
vn -0.2440 0.6741 0.6971
vn -0.2251 0.6389 0.7357
vn -0.0070 0.7737 0.6336
vn 0.5143 0.3765 -0.7705
vn 0.3886 0.8719 -0.2979
vn 0.7411 0.5322 -0.4093
vn -0.7787 -0.1801 -0.6010
vn -0.9619 -0.2698 -0.0453
vn -0.6233 0.5354 0.5699
vn 0.0564 0.9325 -0.3567
vn -0.7059 0.3413 0.6207
vn -0.8801 0.3772 -0.2883
vn -0.7088 -0.6486 -0.2773
vn 0.6897 -0.1532 -0.7077
vn -0.5759 0.7999 0.1690
vn -0.2749 0.9001 -0.3381
vn -0.2994 -0.9257 0.2312
vn -0.5754 -0.5873 0.5693
vn -0.5142 0.4542 -0.7275
vn -0.3957 -0.6431 -0.6557
vn 0.0209 -0.6733 -0.7390
vn -0.0214 0.3742 -0.9271
vn 0.2995 0.3957 -0.8682
vn 0.2451 -0.5799 -0.7769
vn 0.2259 -0.6812 -0.6964
vn 0.2539 -0.7721 -0.5826
vn 0.8179 0.4607 -0.3446
vn -0.6297 -0.3459 -0.6956
vn -0.5394 -0.6370 -0.5507
vn -0.2644 -0.9196 -0.2905
vn 0.7462 -0.4801 -0.4612
vn -0.1793 -0.9772 -0.1134
vn -0.6460 -0.1442 -0.7496
vn -0.4172 -0.8824 -0.2175
vn -0.5085 -0.7147 -0.4803
vn -0.5379 -0.2784 -0.7957
vn 0.8173 -0.5583 -0.1426
vn 0.9694 -0.1997 0.1430
vn 0.7001 -0.6982 0.1497
vn -0.9708 -0.1964 0.1380
vn -0.5959 -0.0000 -0.8030
vn 0.9694 0.1995 0.1431
vn 0.8725 -0.4572 -0.1726
s 1
usemtl Metall_Alu_final
f 1//1 2//2 84//3
f 1//1 83//4 85//5
f 5//6 6//7 2//2
f 84//3 2//2 88//8
f 5//6 1//1 3//9
f 3//9 85//5 9//10
f 17//11 18//12 6//7
f 2//2 6//7 19//13
f 88//8 7//14 94//15
f 17//11 5//6 21//16
f 8//17 3//9 9//10
f 110//18 22//19 11//20
f 22//19 23//21 12//22
f 23//21 24//23 13//24
f 24//23 25//25 14//26
f 25//25 21//16 15//27
f 21//16 8//17 15//27
f 26//28 27//29 18//12
f 6//7 18//12 19//13
f 7//14 19//13 29//30
f 94//15 20//31 108//32
f 26//28 17//11 21//16
f 122//33 31//34 110//18
f 31//34 32//35 22//19
f 32//35 33//36 24//23
f 33//36 26//28 24//23
f 33//36 34//37 26//28
f 18//12 27//29 28//38
f 19//13 28//38 36//39
f 20//31 29//30 30//40
f 122//33 132//41 31//34
f 31//34 40//42 41//43
f 32//35 41//43 34//37
f 27//29 34//37 35//44
f 28//38 35//44 43//45
f 29//30 36//39 44//46
f 30//40 37//47 38//48
f 40//42 132//41 49//49
f 41//43 40//42 50//50
f 34//37 41//43 42//51
f 35//44 42//51 51//52
f 36//39 43//45 52//53
f 72//54 74//55 53//56
f 49//49 142//57 148//58
f 50//50 49//49 55//59
f 42//51 50//50 55//59
f 43//45 51//52 56//60
f 44//46 52//53 57//61
f 65//62 59//63 60//64
f 51//52 55//59 56//60
f 30//40 38//48 39//65
f 56//60 55//59 63//66
f 57//61 63//66 58//67
f 58//67 63//66 61//68
f 62//69 59//63 63//66
f 60//64 64//70 66//71
f 64//70 67//72 66//71
f 67//72 69//73 70//74
f 69//73 71//75 70//74
f 71//75 73//76 74//55
f 73//76 46//77 45//78
f 57//61 58//67 70//74
f 53//56 57//61 72//54
f 37//47 44//46 45//78
f 68//79 58//67 66//71
f 58//67 61//68 66//71
f 39//65 38//48 76//80
f 38//48 48//81 79//82
f 48//81 47//83 78//84
f 71//75 78//84 73//76
f 120//85 39//65 77//86
f 79//82 78//84 71//75
f 59//63 62//69 64//70
f 64//70 62//69 67//72
f 80//87 76//80 79//82
f 69//73 80//87 71//75
f 69//73 67//72 80//87
f 55//59 54//88 81//89
f 54//88 148//58 81//89
f 77//86 81//89 75//90
f 76//80 82//91 81//89
f 76//80 80//87 82//91
f 55//59 82//91 80//87
f 47//83 46//77 73//76
f 86//92 83//4 84//3
f 86//92 89//93 85//5
f 91//94 86//92 87//95
f 84//3 88//8 87//95
f 91//94 95//96 89//93
f 89//93 96//97 85//5
f 104//98 91//94 92//99
f 87//95 93//100 106//101
f 88//8 94//15 93//100
f 104//98 109//102 91//94
f 95//96 103//103 96//97
f 110//18 97//104 98//105
f 111//106 98//105 99//107
f 112//108 99//107 100//109
f 113//110 100//109 101//111
f 114//112 101//111 102//113
f 109//102 102//113 95//96
f 115//114 104//98 105//115
f 92//99 106//101 105//115
f 93//100 107//116 118//117
f 94//15 108//32 107//116
f 115//114 114//112 109//102
f 122//33 110//18 111//106
f 123//118 111//106 124//119
f 124//119 112//108 113//110
f 125//120 113//110 115//114
f 125//120 115//114 126//121
f 105//115 117//122 116//123
f 106//101 118//117 128//124
f 107//116 119//125 118//117
f 122//33 123//118 132//41
f 123//118 124//119 134//126
f 124//119 125//120 126//121
f 116//123 127//127 126//121
f 117//122 128//124 136//128
f 118//117 129//129 137//130
f 119//125 130//131 129//129
f 133//132 143//133 132//41
f 134//126 144//134 133//132
f 126//121 135//135 134//126
f 127//127 136//128 145//136
f 128//124 137//130 146//137
f 167//138 147//139 169//140
f 143//133 149//141 148//58
f 144//134 150//142 143//133
f 135//135 145//136 150//142
f 136//128 146//137 151//143
f 137//130 147//139 152//144
f 160//145 156//146 155//147
f 145//136 151//143 150//142
f 119//125 131//148 130//131
f 151//143 158//149 150//142
f 152//144 153//150 158//149
f 153//150 156//146 158//149
f 157//151 158//149 154//152
f 155//147 156//146 161//153
f 159//154 161//153 162//155
f 162//155 163//156 165//157
f 164//158 165//157 166//159
f 166//159 167//138 169//140
f 168//160 169//140 138//161
f 152//144 165//157 153//150
f 147//139 167//138 152//144
f 129//129 138//161 137//130
f 163//156 161//153 153//150
f 153//150 161//153 156//146
f 131//148 172//162 171//163
f 130//131 171//163 174//164
f 141//165 174//164 173//166
f 166//159 168//160 173//166
f 120//85 170//167 172//162
f 174//164 175//168 166//159
f 154//152 155//147 159//154
f 159//154 162//155 157//151
f 175//168 174//164 171//163
f 164//158 166//159 175//168
f 164//158 175//168 162//155
f 150//142 178//169 177//170
f 149//141 177//170 148//58
f 172//162 170//167 177//170
f 171//163 172//162 177//170
f 171//163 178//169 175//168
f 150//142 157//151 175//168
f 140//171 173//166 168//160
f 83//4 1//1 84//3
f 3//9 1//1 85//5
f 1//1 5//6 2//2
f 2//2 7//14 88//8
f 8//17 5//6 3//9
f 85//5 4//172 9//10
f 5//6 17//11 6//7
f 7//14 2//2 19//13
f 7//14 20//31 94//15
f 5//6 8//17 21//16
f 16//173 8//17 9//10
f 10//174 110//18 11//20
f 11//20 22//19 12//22
f 12//22 23//21 13//24
f 13//24 24//23 14//26
f 14//26 25//25 15//27
f 8//17 16//173 15//27
f 17//11 26//28 18//12
f 18//12 28//38 19//13
f 20//31 7//14 29//30
f 20//31 30//40 108//32
f 25//25 26//28 21//16
f 31//34 22//19 110//18
f 32//35 23//21 22//19
f 23//21 32//35 24//23
f 26//28 25//25 24//23
f 34//37 27//29 26//28
f 27//29 35//44 28//38
f 29//30 19//13 36//39
f 29//30 37//47 30//40
f 132//41 40//42 31//34
f 32//35 31//34 41//43
f 33//36 32//35 34//37
f 34//37 42//51 35//44
f 36//39 28//38 43//45
f 37//47 29//30 44//46
f 38//48 37//47 48//81
f 37//47 45//78 48//81
f 45//78 46//77 47//83
f 48//81 45//78 47//83
f 132//41 142//57 49//49
f 40//42 49//49 50//50
f 41//43 50//50 42//51
f 43//45 35//44 51//52
f 44//46 36//39 52//53
f 54//88 49//49 148//58
f 49//49 54//88 55//59
f 51//52 42//51 55//59
f 52//53 43//45 56//60
f 53//56 44//46 57//61
f 61//68 65//62 60//64
f 108//32 30//40 120//85
f 30//40 39//65 120//85
f 55//59 62//69 63//66
f 52//53 56//60 57//61
f 56//60 63//66 57//61
f 63//66 65//62 61//68
f 59//63 65//62 63//66
f 61//68 60//64 66//71
f 67//72 68//79 66//71
f 68//79 67//72 70//74
f 71//75 72//54 70//74
f 72//54 71//75 74//55
f 74//55 73//76 45//78
f 58//67 68//79 70//74
f 57//61 70//74 72//54
f 44//46 53//56 74//55
f 45//78 44//46 74//55
f 77//86 39//65 76//80
f 76//80 38//48 79//82
f 79//82 48//81 78//84
f 75//90 120//85 77//86
f 80//87 79//82 71//75
f 60//64 59//63 64//70
f 67//72 62//69 80//87
f 82//91 55//59 81//89
f 148//58 176//175 81//89
f 81//89 176//175 75//90
f 77//86 76//80 81//89
f 62//69 55//59 80//87
f 78//84 47//83 73//76
f 87//95 86//92 84//3
f 83//4 86//92 85//5
f 92//99 91//94 87//95
f 88//8 93//100 87//95
f 86//92 91//94 89//93
f 96//97 90//176 85//5
f 105//115 104//98 92//99
f 92//99 87//95 106//101
f 94//15 107//116 93//100
f 109//102 95//96 91//94
f 89//93 95//96 96//97
f 111//106 110//18 98//105
f 112//108 111//106 99//107
f 113//110 112//108 100//109
f 114//112 113//110 101//111
f 109//102 114//112 102//113
f 102//113 103//103 95//96
f 116//123 115//114 105//115
f 106//101 117//122 105//115
f 106//101 93//100 118//117
f 108//32 119//125 107//116
f 104//98 115//114 109//102
f 123//118 122//33 111//106
f 111//106 112//108 124//119
f 125//120 124//119 113//110
f 113//110 114//112 115//114
f 115//114 116//123 126//121
f 117//122 127//127 116//123
f 117//122 106//101 128//124
f 119//125 129//129 118//117
f 123//118 133//132 132//41
f 133//132 123//118 134//126
f 134//126 124//119 126//121
f 127//127 135//135 126//121
f 127//127 117//122 136//128
f 128//124 118//117 137//130
f 130//131 141//165 129//129
f 129//129 141//165 138//161
f 141//165 140//171 138//161
f 140//171 139//177 138//161
f 143//133 142//57 132//41
f 144//134 143//133 133//132
f 135//135 144//134 134//126
f 135//135 127//127 145//136
f 136//128 128//124 146//137
f 142//57 143//133 148//58
f 150//142 149//141 143//133
f 144//134 135//135 150//142
f 145//136 136//128 151//143
f 146//137 137//130 152//144
f 154//152 160//145 155//147
f 108//32 120//85 119//125
f 120//85 131//148 119//125
f 158//149 157//151 150//142
f 146//137 152//144 151//143
f 152//144 158//149 151//143
f 156//146 160//145 158//149
f 158//149 160//145 154//152
f 159//154 155//147 161//153
f 161//153 163//156 162//155
f 164//158 162//155 165//157
f 165//157 167//138 166//159
f 168//160 166//159 169//140
f 139//177 168//160 138//161
f 165//157 163//156 153//150
f 167//138 165//157 152//144
f 138//161 169//140 137//130
f 169//140 147//139 137//130
f 130//131 131//148 171//163
f 141//165 130//131 174//164
f 140//171 141//165 173//166
f 131//148 120//85 172//162
f 173//166 174//164 166//159
f 157//151 154//152 159//154
f 175//168 157//151 162//155
f 149//141 150//142 177//170
f 177//170 176//175 148//58
f 170//167 176//175 177//170
f 178//169 171//163 177//170
f 178//169 150//142 175//168
f 139//177 140//171 168//160
