# Blender 3.6.4
# www.blender.org
mtllib thumb-F2.mtl
g thumb-F2_thumb-F2
v -0.078401 0.009517 -0.007160
v -0.078322 -0.001125 -0.004598
v -0.078400 0.008998 0.007244
v -0.078311 -0.001607 0.004757
v -0.067493 0.020738 0.000214
v -0.076966 0.011747 -0.006932
v -0.077768 0.010985 0.006852
v -0.071795 -0.008670 -0.005032
v -0.053743 0.002087 -0.011218
v -0.017491 -0.002649 -0.011538
v -0.053772 0.004247 -0.011609
v -0.053909 0.005418 -0.011496
v -0.053723 0.003249 -0.011545
v -0.016682 -0.009836 -0.000203
v -0.017542 -0.009855 0.001069
v -0.069797 -0.008996 -0.004448
v -0.071154 -0.008829 0.004901
v -0.071636 -0.008647 0.005053
v -0.072056 -0.008034 0.005271
v -0.077868 0.010780 -0.007084
v -0.061842 0.014630 -0.009087
v -0.057017 0.010423 -0.010418
v -0.062779 0.016095 -0.008342
v -0.023563 0.001886 -0.012189
v -0.023007 0.004514 -0.012244
v -0.073534 -0.008027 -0.005103
v -0.064252 0.017922 -0.006912
v -0.065224 0.019156 -0.005458
v -0.031005 0.015021 -0.007091
v -0.015759 -0.007027 -0.007951
v -0.069153 -0.008800 -0.004994
v -0.018626 -0.005946 -0.009136
v -0.069076 -0.008957 -0.004701
v -0.016506 -0.008101 -0.006238
v -0.014074 -0.008554 -0.005304
v -0.017863 -0.000914 -0.012011
v -0.016574 -0.009089 -0.003939
v -0.010840 -0.008843 -0.003049
v -0.016609 -0.009440 -0.002711
v -0.016646 -0.009691 -0.001459
v -0.070034 -0.008988 0.004587
v -0.016983 -0.007669 0.007832
v -0.017409 -0.006188 0.009318
v -0.013177 -0.006103 0.009249
v -0.013887 -0.009838 0.002009
v -0.017631 -0.009356 0.004434
v -0.013742 -0.008601 0.006316
v -0.074286 -0.007689 0.005117
v -0.025964 -0.000312 0.012013
v -0.054179 0.000503 0.009988
v -0.076879 -0.004937 -0.005155
v -0.075487 -0.006673 -0.005119
v -0.077907 0.008011 -0.007200
v -0.067139 0.019813 -0.003321
v -0.066595 0.020665 -0.001317
v -0.025604 0.005585 -0.012092
v -0.028991 0.017088 0.002699
v -0.067372 0.019512 0.005452
v -0.028590 0.016293 0.005237
v -0.021618 0.016183 0.002182
v -0.028610 0.017308 0.000143
v -0.058744 0.006782 0.011378
v -0.062391 0.009825 0.011424
v -0.076869 -0.005037 0.005105
v -0.063920 0.012158 0.011295
v -0.077658 -0.003451 -0.004975
v -0.014224 -0.004671 -0.010165
v -0.018492 -0.004294 -0.010524
v -0.018560 -0.005134 -0.009883
v -0.006206 -0.006563 -0.004734
v -0.005981 -0.007750 0.000514
v -0.010359 -0.006458 -0.007581
v -0.018338 -0.004478 0.010399
v -0.023451 -0.001832 0.011533
v -0.014030 -0.002389 0.011146
v -0.030292 0.012854 -0.009128
v -0.027866 0.010942 -0.010336
v -0.023758 0.008160 -0.011532
v -0.067598 0.020365 0.002709
v -0.032237 0.014669 0.008522
v -0.067072 0.018645 0.007093
v -0.066602 0.017464 0.008585
v -0.029591 0.015546 0.006915
v -0.032061 0.017466 -0.001782
v -0.065165 0.020126 -0.003517
v -0.027437 0.016655 -0.003465
v -0.025454 0.015445 0.006394
v -0.017400 0.014577 -0.000459
v -0.020160 0.015290 -0.002660
v -0.022413 0.001249 0.012562
v -0.028539 0.005319 0.012782
v -0.028790 0.002758 0.012642
v -0.028454 0.007236 0.012539
v -0.012483 -0.001706 -0.011401
v -0.015747 0.000723 -0.012075
v -0.008869 -0.008810 0.002319
v 0.000855 0.001294 -0.000752
v -0.001048 0.001928 -0.005610
v -0.007476 -0.007123 0.005532
v -0.007297 -0.001064 0.009642
v -0.003635 0.001371 0.007900
v -0.008843 0.002586 0.010122
v -0.000280 0.004153 -0.001478
v -0.019972 0.009155 -0.010440
v -0.010398 0.006861 -0.009148
v -0.014560 0.004602 -0.011470
v -0.025091 0.014282 -0.007049
v -0.015308 0.012959 0.003749
v -0.020431 0.013695 0.006966
v -0.002490 0.003621 0.005329
v -0.002018 0.005115 0.002399
v -0.014012 0.010941 0.006251
v -0.017715 0.010064 0.009326
v -0.009267 0.009206 -0.005852
v -0.017667 0.011498 -0.007543
v -0.002628 0.006117 -0.000744
v -0.002011 0.005320 -0.003889
v -0.065937 0.016014 0.009768
v -0.065167 0.014354 0.010639
v -0.007083 -0.003982 -0.008458
v -0.010781 0.002851 -0.010944
v 0.000749 0.000689 0.002870
v -0.006972 -0.004095 0.008440
v -0.032069 0.016401 -0.005085
v -0.006074 0.001014 -0.009527
v -0.004963 0.005243 -0.007821
v -0.028654 0.010796 0.011344
v -0.009030 0.005629 0.008436
v -0.010584 0.011030 -0.000624
v -0.014154 0.000761 0.011559
v -0.032017 0.013049 0.010067
v -0.024524 0.012712 0.009443
v -0.001999 -0.001039 0.006580
v -0.020462 0.003917 0.012459
v -0.019887 0.007936 0.011292
v -0.028842 0.009362 0.011936
vn -1.0000 -0.0075 -0.0002
vn -1.0000 -0.0085 0.0007
vn -0.6884 0.7253 -0.0000
vn -0.0624 -0.4167 -0.9069
vn -0.1616 0.0755 -0.9840
vn -0.0438 -0.2704 -0.9617
vn -0.0139 -0.9996 -0.0245
vn -0.2333 0.1810 -0.9554
vn -0.1543 0.1329 -0.9790
vn -0.1969 0.3414 -0.9191
vn -0.0242 -0.0646 -0.9976
vn -0.0205 -0.0166 -0.9997
vn -0.1582 -0.2655 -0.9511
vn -0.9523 0.3050 0.0110
vn -0.7310 0.6824 -0.0048
vn -0.9213 0.3889 0.0009
vn 0.0649 0.7821 -0.6198
vn -0.0115 -0.7524 -0.6586
vn 0.0006 -0.8828 -0.4697
vn 0.0018 -0.8980 -0.4400
vn -0.0371 -0.8863 -0.4617
vn -0.0440 -0.2717 -0.9614
vn 0.0834 -0.9586 -0.2723
vn 0.0029 -0.9328 -0.3604
vn 0.0016 -0.9613 -0.2754
vn 0.0782 -0.9685 -0.2365
vn 0.0899 -0.9771 -0.1930
vn -0.0066 -0.9934 -0.1144
vn -0.0016 -0.9805 -0.1964
vn -0.0038 -0.9867 -0.1623
vn -0.0165 -0.9999 0.0004
vn -0.1413 -0.9900 -0.0029
vn -0.1592 -0.9872 -0.0056
vn -0.0609 -0.9459 -0.3186
vn -0.0228 -0.7113 0.7025
vn -0.0266 -0.6819 0.7310
vn 0.0258 -0.7043 0.7094
vn -0.0064 -0.9826 0.1856
vn -0.0121 -0.9978 0.0647
vn -0.0071 -0.9018 0.4320
vn -0.0091 -0.8607 0.5091
vn -0.1418 -0.5460 0.8257
vn -0.0771 -0.3536 0.9322
vn -0.1546 0.1243 -0.9801
vn -0.2015 -0.1813 -0.9626
vn -0.1900 -0.0715 -0.9792
vn -0.2998 0.6194 -0.7256
vn -0.5528 0.7909 -0.2624
vn -0.3875 0.8815 -0.2696
vn -0.2306 0.4774 -0.8479
vn -0.1912 0.3233 -0.9268
vn -0.0213 0.0896 -0.9957
vn 0.0808 0.9547 0.2864
vn 0.1363 0.9513 0.2766
vn 0.0879 0.9961 0.0036
vn -0.1761 -0.2255 0.9582
vn -0.2406 -0.1718 0.9553
vn -0.1665 -0.2521 -0.9533
vn -0.0983 -0.3670 -0.9250
vn -0.2460 -0.1078 0.9633
vn -0.8146 -0.1415 -0.5625
vn -0.0013 -0.8471 -0.5315
vn 0.0399 -0.8544 -0.5181
vn 0.0341 -0.6960 -0.7172
vn -0.0476 -0.5030 -0.8630
vn -0.0324 -0.6044 -0.7960
vn 0.0247 -0.6779 -0.7347
vn 0.0132 -0.6070 -0.7946
vn -0.0265 -0.1170 -0.9928
vn 0.1089 -0.9857 -0.1284
vn 0.0871 -0.9900 -0.1112
vn 0.3649 -0.9046 -0.2203
vn 0.1246 -0.8231 -0.5540
vn -0.0226 -0.6732 -0.7391
vn -0.0222 -0.6759 -0.7367
vn 0.0245 -0.5247 0.8510
vn 0.0539 -0.9602 0.2741
vn 0.0072 -0.9999 -0.0103
vn -0.0054 -0.9241 0.3821
vn 0.0781 -0.7664 0.6376
vn -0.0666 -0.3989 0.9146
vn -0.0716 -0.3781 0.9230
vn 0.0599 -0.4430 0.8945
vn -0.3417 -0.9398 0.0070
vn -0.1544 0.1154 -0.9812
vn -0.0215 0.0929 -0.9954
vn -0.2064 -0.1686 -0.9638
vn -0.3864 0.7256 -0.5694
vn 0.0450 0.6378 -0.7689
vn 0.0366 0.5667 -0.8231
vn 0.0176 0.4622 -0.8866
vn 0.0108 0.4083 -0.9128
vn 0.0810 0.9536 0.2898
vn 0.0836 0.9850 0.1510
vn 0.0656 0.7924 0.6065
vn 0.0707 0.8221 0.5649
vn -0.4588 0.6207 0.6358
vn 0.0883 0.9793 -0.1823
vn 0.0896 0.9710 -0.2215
vn 0.0908 0.9925 -0.0816
vn 0.1453 0.9436 0.2976
vn 0.3096 0.9474 -0.0813
vn -0.2110 -0.2012 0.9566
vn -0.6208 -0.1839 0.7621
vn -0.0004 -0.0545 0.9985
vn -0.0467 -0.0499 0.9977
vn -0.0525 -0.0780 0.9956
vn -0.0172 0.1264 0.9918
vn -0.1115 -0.2914 0.9501
vn -0.0766 -0.2676 0.9605
vn -0.8859 -0.4639 -0.0036
vn -0.0358 0.0319 0.9988
vn -0.6566 0.7494 0.0847
vn 0.0566 0.6934 -0.7183
vn 0.0731 -0.2479 -0.9660
vn 0.1064 -0.4352 -0.8940
vn 0.0238 -0.5350 -0.8445
vn 0.0073 -0.0486 -0.9988
vn 0.2251 -0.8719 -0.4348
vn 0.2043 -0.9765 -0.0691
vn 0.7764 -0.5098 -0.3705
vn 0.2565 -0.8971 0.3598
vn 0.2540 -0.7600 0.5982
vn 0.4018 0.0500 0.9144
vn 0.9060 0.2788 -0.3184
vn -0.7164 -0.6976 0.0148
vn -0.7802 -0.6255 -0.0053
vn 0.1776 -0.9474 0.2663
vn -0.0510 -0.4748 0.8786
vn -0.0407 -0.5496 0.8344
vn 0.0165 -0.3665 0.9303
vn -0.0446 -0.2400 0.9698
vn -0.5695 -0.8218 -0.0147
vn -0.0174 0.2243 -0.9744
vn -0.0218 0.1976 -0.9801
vn -0.5775 -0.1677 -0.7990
vn -0.1804 0.9219 -0.3429
vn 0.2267 0.4632 -0.8568
vn 0.1271 0.6402 -0.7577
vn 0.0924 0.6978 -0.7104
vn -0.0124 0.2888 -0.9573
vn 0.1959 0.9732 -0.1204
vn 0.2123 0.8730 -0.4391
vn 0.0891 -0.1536 -0.9841
vn 0.0876 0.9913 0.0985
vn 0.1284 0.9862 0.1041
vn 0.0755 0.8873 0.4549
vn -0.5848 0.7597 0.2843
vn -0.5206 0.7121 0.4712
vn 0.1220 0.9829 -0.1382
vn 0.1904 0.9750 -0.1146
vn 0.4244 0.8956 0.1335
vn 0.2622 0.8813 0.3931
vn 0.5030 0.7344 0.4557
vn 0.3638 0.6834 0.6330
vn 0.3193 0.8204 -0.4742
vn 0.6263 0.7761 -0.0738
vn 0.0941 0.8006 0.5918
vn -0.0766 -0.2682 0.9603
vn -0.9620 -0.2727 -0.0129
vn -0.9221 -0.3867 0.0114
vn -0.3478 0.3039 0.8869
vn -0.3451 0.2860 0.8939
vn 0.2411 -0.5911 -0.7697
vn 0.1813 0.0971 -0.9786
vn 0.7137 -0.4856 -0.5049
vn 0.4652 -0.8506 0.2449
vn 0.2701 -0.8636 -0.4257
vn 0.7744 -0.6092 -0.1709
vn 0.7900 -0.6081 -0.0788
vn 0.2873 -0.9526 -0.0997
vn 0.1226 -0.7208 -0.6822
vn 0.3077 -0.6853 0.6601
vn 0.6578 0.7452 0.1099
vn 0.9174 0.3874 0.0915
vn -0.0088 -0.3144 0.9493
vn -0.1111 -0.2922 0.9499
vn -0.1847 -0.0340 -0.9822
vn -0.5238 -0.1733 -0.8340
vn -0.1832 0.8814 -0.4353
vn 0.0850 0.9181 -0.3871
vn 0.0758 0.8399 -0.5374
vn 0.1340 0.6364 -0.7596
vn 0.1069 0.5217 -0.8464
vn 0.1095 0.8452 -0.5232
vn 0.3706 0.2622 -0.8910
vn 0.2149 0.0176 -0.9765
vn 0.0235 0.1962 -0.9803
vn 0.0111 -0.0233 -0.9997
vn 0.0293 0.4749 0.8795
vn 0.0777 0.8928 0.4437
vn 0.0766 0.8932 0.4431
vn -0.3934 0.4661 0.7925
vn 0.4750 0.6768 0.5624
vn 0.3946 0.8043 0.4443
vn 0.3513 0.8635 0.3618
vn 0.4496 0.8726 -0.1911
vn 0.0198 -0.3230 0.9462
vn 0.1124 -0.1249 0.9858
vn 0.2656 -0.0142 0.9640
vn 0.0577 0.6931 0.7185
vn 0.1937 0.7592 0.6214
vn 0.0395 0.5368 0.8428
vn 0.0933 0.5928 0.8000
vn -0.2914 0.1182 0.9493
vn 0.2470 -0.4929 -0.8343
vn 0.5874 0.1654 -0.7922
vn 0.3834 -0.7142 -0.5856
vn 0.2436 -0.3961 0.8853
vn 0.2671 -0.3304 0.9053
vn 0.7261 -0.6453 0.2374
vn 0.7628 0.5180 0.3872
vn 0.4610 0.8806 0.1095
vn 0.4995 0.7823 0.3722
vn 0.8135 0.5332 0.2323
vn 0.1580 0.3927 -0.9060
vn 0.2057 0.6745 -0.7090
vn 0.2752 0.8223 -0.4982
vn 0.1241 0.8628 -0.4901
vn 0.2680 0.6578 0.7039
vn 0.3256 0.4735 0.8184
vn 0.1153 0.7569 0.6432
vn 0.0907 0.6937 0.7145
vn 0.3948 0.6410 0.6582
vn 0.5144 0.7579 -0.4012
vn 0.8199 0.4265 -0.3819
vn 0.3203 0.7165 -0.6197
vn 0.3591 0.6979 -0.6197
vn 0.4185 0.8757 -0.2410
vn 0.5198 0.8379 0.1662
vn 0.5005 0.8489 -0.1700
vn 0.5208 0.8463 -0.1123
vn 0.1177 -0.0477 0.9919
vn 0.0414 0.0084 0.9991
vn 0.0609 0.1228 0.9906
vn 0.2383 -0.1171 0.9641
vn 0.0496 0.6448 0.7627
vn 0.3727 -0.2656 -0.8891
vn 0.0892 0.1267 -0.9879
vn 0.2846 -0.0102 -0.9586
vn 0.4965 -0.1329 0.8578
vn 0.4817 -0.2780 0.8311
vn 0.5134 0.8380 0.1848
vn 0.7546 0.1642 0.6353
vn 0.7370 0.3109 0.6001
vn 0.4909 0.5356 0.6872
vn 0.4371 0.4563 0.7751
vn 0.0790 0.8906 -0.4479
vn 0.2519 0.6447 -0.7217
vn 0.3213 0.3614 -0.8753
vn 0.3092 0.4557 0.8347
vn 0.7010 0.4707 -0.5357
vn 0.2180 0.2433 0.9451
vn 0.2111 0.1463 0.9664
vn 0.1655 0.4916 0.8549
vn 0.2206 0.5309 0.8182
vn 0.1244 0.3644 0.9229
vn 0.1146 0.2905 0.9500
vn 0.1181 0.2613 0.9580
vn 0.0056 0.2892 0.9573
vn 0.0191 0.3791 0.9252
vn 0.0042 0.2737 0.9618
vn 0.0871 0.2082 -0.9742
vn 0.6866 -0.6676 0.2880
vn 0.5782 -0.6132 0.5382
vn 0.2932 0.3674 -0.8827
vn 0.6211 -0.2820 -0.7312
vn -0.3470 -0.9378 0.0055
s 0
g off
f 1//1 2//1 3//1
f 4//2 3//2 2//2
f 5//3 6//3 7//3
f 8//4 9//4 10//4
f 11//5 1//5 12//5
f 10//6 9//6 13//6
f 14//7 15//7 16//7
f 17//8 18//8 19//8
f 20//9 21//9 22//9
f 21//10 20//10 23//10
f 24//11 13//11 11//11
f 24//12 11//12 25//12
f 26//13 13//13 9//13
f 3//14 7//14 1//14
f 20//15 7//15 6//15
f 20//16 1//16 7//16
f 27//17 28//17 29//17
f 30//18 31//18 32//18
f 33//19 31//19 34//19
f 33//20 34//20 35//20
f 33//21 8//21 31//21
f 36//22 10//22 13//22
f 37//23 38//23 39//23
f 37//24 33//24 35//24
f 37//25 39//25 33//25
f 35//26 38//26 37//26
f 40//27 39//27 38//27
f 40//28 14//28 16//28
f 40//29 33//29 39//29
f 40//30 16//30 33//30
f 16//31 15//31 41//31
f 16//32 41//32 17//32
f 16//33 17//33 8//33
f 16//34 8//34 33//34
f 17//35 42//35 43//35
f 18//36 17//36 43//36
f 44//37 43//37 42//37
f 45//38 46//38 41//38
f 45//39 41//39 15//39
f 47//40 17//40 41//40
f 47//41 42//41 17//41
f 48//42 17//42 19//42
f 19//43 49//43 50//43
f 20//44 22//44 1//44
f 51//45 13//45 52//45
f 53//46 11//46 13//46
f 6//47 28//47 27//47
f 5//48 54//48 6//48
f 5//49 55//49 54//49
f 23//50 6//50 27//50
f 23//51 20//51 6//51
f 56//52 25//52 11//52
f 57//53 58//53 59//53
f 57//54 59//54 60//54
f 61//55 55//55 5//55
f 62//56 63//56 48//56
f 64//57 63//57 3//57
f 52//58 13//58 26//58
f 26//59 9//59 8//59
f 65//60 3//60 63//60
f 66//61 2//61 1//61
f 30//62 34//62 31//62
f 30//63 35//63 34//63
f 30//64 32//64 67//64
f 10//65 68//65 8//65
f 69//66 8//66 68//66
f 69//67 67//67 32//67
f 67//68 69//68 68//68
f 24//69 36//69 13//69
f 45//70 40//70 38//70
f 45//71 14//71 40//71
f 70//72 71//72 38//72
f 30//73 72//73 35//73
f 31//74 8//74 69//74
f 31//75 69//75 32//75
f 44//76 73//76 43//76
f 45//77 47//77 46//77
f 45//78 15//78 14//78
f 46//79 47//79 41//79
f 47//80 44//80 42//80
f 49//81 18//81 74//81
f 49//82 19//82 18//82
f 75//83 73//83 44//83
f 17//84 48//84 8//84
f 12//85 1//85 22//85
f 12//86 56//86 11//86
f 51//87 53//87 13//87
f 28//88 6//88 54//88
f 27//89 76//89 23//89
f 77//90 23//90 76//90
f 77//91 21//91 23//91
f 77//92 78//92 21//92
f 79//93 58//93 57//93
f 57//94 5//94 79//94
f 80//95 81//95 82//95
f 83//96 81//96 80//96
f 82//97 81//97 7//97
f 84//98 85//98 55//98
f 84//99 86//99 85//99
f 84//100 55//100 61//100
f 87//101 60//101 59//101
f 88//102 89//102 60//102
f 64//103 48//103 63//103
f 64//104 3//104 4//104
f 90//105 91//105 92//105
f 92//106 91//106 63//106
f 92//107 63//107 62//107
f 93//108 65//108 91//108
f 62//109 48//109 50//109
f 50//110 49//110 92//110
f 64//111 66//111 51//111
f 65//112 63//112 91//112
f 7//113 79//113 5//113
f 76//114 27//114 29//114
f 36//115 94//115 10//115
f 67//116 10//116 94//116
f 67//117 68//117 10//117
f 95//118 36//118 24//118
f 35//119 72//119 38//119
f 45//120 38//120 96//120
f 97//121 70//121 98//121
f 96//122 99//122 47//122
f 99//123 44//123 47//123
f 100//124 101//124 102//124
f 97//125 98//125 103//125
f 64//126 52//126 48//126
f 51//127 52//127 64//127
f 47//128 45//128 96//128
f 73//129 74//129 18//129
f 73//130 18//130 43//130
f 74//131 73//131 75//131
f 90//132 92//132 49//132
f 26//133 48//133 52//133
f 22//134 78//134 56//134
f 12//135 22//135 56//135
f 53//136 66//136 1//136
f 55//137 85//137 54//137
f 104//138 105//138 106//138
f 107//139 77//139 76//139
f 107//140 76//140 29//140
f 22//141 21//141 78//141
f 86//142 60//142 89//142
f 89//143 107//143 86//143
f 95//144 94//144 36//144
f 61//145 5//145 57//145
f 61//146 57//146 60//146
f 83//147 58//147 81//147
f 58//148 79//148 7//148
f 58//149 7//149 81//149
f 86//150 84//150 61//150
f 86//151 61//151 60//151
f 108//152 88//152 60//152
f 109//153 60//153 87//153
f 110//154 111//154 112//154
f 112//155 109//155 113//155
f 114//156 115//156 89//156
f 116//157 103//157 117//157
f 80//158 87//158 83//158
f 62//159 50//159 92//159
f 4//160 2//160 66//160
f 4//161 66//161 64//161
f 118//162 7//162 119//162
f 3//163 119//163 7//163
f 120//164 72//164 67//164
f 121//165 95//165 106//165
f 98//166 70//166 120//166
f 71//167 99//167 96//167
f 72//168 70//168 38//168
f 70//169 97//169 71//169
f 71//170 97//170 122//170
f 71//171 96//171 38//171
f 72//172 30//172 67//172
f 123//173 44//173 99//173
f 111//174 103//174 116//174
f 122//175 97//175 103//175
f 90//176 49//176 74//176
f 48//177 19//177 50//177
f 1//178 11//178 53//178
f 66//179 53//179 51//179
f 28//180 54//180 85//180
f 85//181 86//181 124//181
f 28//182 124//182 29//182
f 77//183 107//183 104//183
f 78//184 77//184 104//184
f 107//185 29//185 124//185
f 125//186 121//186 126//186
f 94//187 95//187 121//187
f 56//188 78//188 25//188
f 95//189 24//189 25//189
f 118//190 119//190 127//190
f 59//191 83//191 87//191
f 59//192 58//192 83//192
f 82//193 7//193 118//193
f 128//194 110//194 112//194
f 109//195 112//195 108//195
f 109//196 108//196 60//196
f 129//197 114//197 88//197
f 90//198 74//198 75//198
f 90//199 75//199 130//199
f 130//200 100//200 102//200
f 131//201 80//201 82//201
f 109//202 87//202 132//202
f 131//203 118//203 127//203
f 131//204 127//204 132//204
f 119//205 3//205 65//205
f 120//206 67//206 94//206
f 126//207 98//207 125//207
f 120//208 70//208 72//208
f 123//209 75//209 44//209
f 100//210 75//210 123//210
f 133//211 71//211 122//211
f 110//212 122//212 111//212
f 129//213 88//213 108//213
f 112//214 111//214 108//214
f 111//215 122//215 103//215
f 104//216 106//216 78//216
f 107//217 115//217 104//217
f 115//218 107//218 89//218
f 86//219 107//219 124//219
f 113//220 109//220 132//220
f 113//221 102//221 128//221
f 132//222 87//222 80//222
f 132//223 80//223 131//223
f 113//224 128//224 112//224
f 117//225 126//225 114//225
f 117//226 103//226 98//226
f 114//227 105//227 115//227
f 105//228 114//228 126//228
f 114//229 89//229 88//229
f 129//230 111//230 116//230
f 129//231 117//231 114//231
f 129//232 116//232 117//232
f 134//233 90//233 130//233
f 91//234 90//234 134//234
f 91//235 134//235 93//235
f 75//236 100//236 130//236
f 118//237 131//237 82//237
f 94//238 125//238 120//238
f 25//239 106//239 95//239
f 121//240 125//240 94//240
f 133//241 101//241 100//241
f 123//242 133//242 100//242
f 108//243 111//243 129//243
f 122//244 101//244 133//244
f 110//245 101//245 122//245
f 128//246 101//246 110//246
f 128//247 102//247 101//247
f 85//248 124//248 28//248
f 105//249 104//249 115//249
f 105//250 126//250 121//250
f 135//251 102//251 113//251
f 98//252 126//252 117//252
f 134//253 102//253 135//253
f 134//254 130//254 102//254
f 135//255 132//255 127//255
f 135//256 113//256 132//256
f 135//257 127//257 136//257
f 135//258 136//258 93//258
f 135//259 93//259 134//259
f 136//260 119//260 65//260
f 136//261 127//261 119//261
f 136//262 65//262 93//262
f 106//263 25//263 78//263
f 133//264 99//264 71//264
f 123//265 99//265 133//265
f 121//266 106//266 105//266
f 120//267 125//267 98//267
f 48//268 26//268 8//268
