# Blender 3.6.4
# www.blender.org
mtllib thumb-F1-MIR.mtl
g thumb-F1-MIR_thumb-F1-MIR
v -0.031976 -0.006618 0.004461
v -0.002275 0.004465 0.011150
v -0.002173 0.004503 -0.003269
v -0.027995 -0.008582 -0.002868
v -0.029009 -0.008539 -0.002709
v -0.029009 -0.022455 0.001020
v -0.017218 -0.019572 0.014490
v 0.002163 0.004508 0.011138
v 0.001106 0.004876 0.011138
v 0.003542 0.003554 0.011140
v 0.001106 0.004876 -0.003269
v -0.000006 0.005000 -0.003269
v 0.002663 0.004253 -0.003269
v -0.000006 0.005000 0.011138
v -0.001117 0.004874 0.011138
v -0.030580 -0.006232 0.005903
v -0.029684 -0.006102 0.006388
v -0.012497 -0.002868 0.011138
v -0.018362 -0.005418 0.010498
v -0.028022 -0.022510 0.000868
v -0.011679 -0.015500 -0.003325
v -0.015981 -0.022334 0.000859
v 0.003918 -0.003106 -0.003269
v -0.007035 -0.014534 -0.003318
v 0.004511 -0.002157 -0.003269
v -0.032512 -0.007644 0.000631
v -0.032690 -0.007383 0.001608
v -0.032574 -0.006977 0.003103
v -0.029968 -0.008444 -0.002352
v -0.030831 -0.008300 -0.001814
v -0.031921 -0.007996 -0.000684
v -0.001117 0.004874 -0.003269
v -0.032324 -0.020691 0.007603
v -0.031355 -0.020322 0.008981
v 0.004501 0.002178 0.011138
v 0.005000 0.000012 0.011138
v 0.004872 0.001123 0.011138
v -0.015959 -0.018963 0.014289
v 0.004877 -0.001100 0.011138
v -0.018308 -0.018749 0.014090
v -0.031355 -0.006406 0.005252
v -0.030111 -0.020062 0.009966
v -0.009619 -0.001177 -0.003315
v 0.004511 -0.002157 0.011138
v 0.003918 -0.003106 0.011138
v 0.004877 -0.001100 -0.003269
v -0.006279 -0.014410 0.010759
v -0.012766 -0.022163 0.002996
v -0.006388 -0.014527 -0.002806
v -0.032716 -0.021165 0.005834
v 0.003904 0.003125 -0.003269
v 0.004733 0.001667 -0.003269
v -0.014398 -0.004957 -0.003313
v 0.005000 0.000012 -0.003269
v -0.013078 -0.022227 0.002053
v -0.013996 -0.022416 0.001348
v -0.031836 -0.021947 0.002923
v -0.032512 -0.021560 0.004360
v -0.029968 -0.022360 0.001376
v -0.030825 -0.022222 0.001911
v -0.015120 -0.019061 0.013869
v -0.014286 -0.019326 0.012861
vn -0.3496 0.9369 -0.0000
vn -0.1403 0.2475 -0.9587
vn -0.1606 -0.2555 -0.9534
vn 0.0376 0.1080 0.9934
vn 0.0608 0.0894 0.9941
vn 0.1108 0.9938 -0.0000
vn 0.3290 0.9443 -0.0000
vn 0.3715 0.9284 -0.0035
vn 0.5687 0.8226 0.0052
vn -0.0488 0.1671 0.9847
vn -0.0167 0.1466 0.9891
vn 0.0140 0.1255 0.9920
vn -0.3854 0.7715 0.5063
vn -0.2491 0.3457 0.9047
vn 0.0070 -0.5253 -0.8509
vn 0.0129 -0.0080 -0.9999
vn -0.3875 0.8703 -0.3039
vn -0.3840 0.8982 -0.2139
vn -0.3673 0.9264 -0.0831
vn -0.2585 0.4963 -0.8288
vn -0.3235 0.6454 -0.6919
vn -0.3847 0.8338 -0.3959
vn -0.3311 0.9436 0.0002
vn -0.1130 0.9936 -0.0000
vn -0.3327 0.9430 -0.0000
vn -0.1613 -0.2554 -0.9533
vn -0.1355 -0.2564 -0.9570
vn -0.8271 0.1419 0.5439
vn 0.0909 0.0623 0.9939
vn 0.1357 0.0156 0.9906
vn 0.1132 0.0399 0.9928
vn 0.1668 -0.0205 0.9858
vn 0.1647 -0.0182 0.9862
vn -0.1741 0.2412 0.9547
vn -0.3551 0.9344 0.0285
vn -0.3795 0.9010 0.2101
vn -0.3439 0.2430 0.9070
vn -0.3254 0.4758 0.8172
vn -0.1702 0.2386 0.9561
vn 0.0007 0.0064 -1.0000
vn 0.0018 0.0045 -1.0000
vn -0.0010 0.0091 -1.0000
vn 0.8482 -0.5297 -0.0000
vn 0.9447 -0.3278 -0.0000
vn 0.7407 -0.6699 0.0501
vn 0.7524 -0.6587 -0.0000
vn 0.1204 -0.5723 -0.8112
vn 0.5363 -0.5111 -0.6717
vn -0.9201 0.1069 0.3769
vn -0.3633 0.7506 -0.5518
vn -0.0053 0.0151 -0.9999
vn -0.0052 -0.9650 0.2621
vn -0.0041 -0.9657 0.2598
vn 0.6730 0.7396 -0.0052
vn 0.0029 0.0016 -1.0000
vn 0.0025 0.0027 -1.0000
vn 0.8691 0.4947 -0.0035
vn 0.8206 0.5715 0.0035
vn 0.9432 0.3322 0.0034
vn -0.2132 0.2534 0.9436
vn -0.7967 0.1564 0.5837
vn -0.0582 0.0844 -0.9947
vn -0.0490 0.0613 -0.9969
vn 0.2099 -0.0728 0.9750
vn 0.2960 -0.1849 0.9371
vn 0.9940 -0.1096 -0.0000
vn 0.9935 0.1142 -0.0000
vn 0.9872 0.1592 -0.0035
vn 0.0068 -0.0024 -1.0000
vn 0.6841 -0.7072 -0.1786
vn 0.5044 -0.7297 -0.4617
vn 0.7393 -0.6699 -0.0690
vn -0.9103 -0.1088 -0.3993
vn -0.9174 -0.1030 -0.3845
vn -0.9848 -0.0449 -0.1676
vn -0.9912 -0.0371 -0.1271
vn -0.3590 -0.2416 -0.9015
vn -0.5422 -0.2175 -0.8116
vn -0.5416 -0.2175 -0.8120
vn -0.0100 -0.9723 0.2336
vn -0.0210 -0.9769 0.2124
vn -0.7200 -0.1797 -0.6703
vn -0.7318 -0.1748 -0.6587
vn -0.0044 -0.9656 0.2602
vn 0.3935 -0.3222 0.8610
vn -0.6337 0.2002 0.7472
vn -0.6564 0.1921 0.7296
vn -0.4883 0.2307 0.8416
vn 0.0047 -0.0005 -1.0000
vn 0.5048 -0.4795 0.7178
vn 0.4399 -0.7123 -0.5469
vn 0.0140 -0.9757 -0.2186
vn 0.0177 -0.9654 0.2603
vn 0.1669 -0.6072 -0.7768
vn -0.4049 -0.8934 0.1945
vn -0.0061 -0.9664 0.2571
vn -0.9972 0.0236 0.0709
vn -0.9779 0.0489 0.2033
vn -0.0023 -0.9663 0.2575
vn -0.0036 -0.9659 0.2587
vn -0.0034 -0.9660 0.2584
vn -0.1228 -0.7885 0.6027
vn 0.0034 0.0006 -1.0000
vn 0.0031 0.0008 -1.0000
vn 0.5552 -0.7727 0.3078
vn 0.5280 -0.6051 0.5959
vn 0.0001 -0.9659 0.2588
vn 0.0070 -0.9656 0.2599
vn -0.0029 -0.9662 0.2580
vn 0.0426 -0.3900 -0.9198
vn -0.0309 -0.0068 -0.9995
vn 0.0015 0.0005 -1.0000
vn -0.0011 0.0009 -1.0000
s 0
g off
f 1//1 2//1 3//1
f 3//2 4//2 5//2
f 4//3 6//3 5//3
f 7//4 8//4 9//4
f 10//5 8//5 7//5
f 9//6 11//6 12//6
f 8//7 11//7 9//7
f 13//8 11//8 8//8
f 12//6 14//6 9//6
f 10//9 13//9 8//9
f 2//10 7//10 15//10
f 15//11 7//11 14//11
f 14//12 7//12 9//12
f 2//13 16//13 17//13
f 18//14 2//14 19//14
f 20//15 21//15 22//15
f 23//16 24//16 25//16
f 26//17 27//17 3//17
f 3//18 27//18 28//18
f 3//19 28//19 1//19
f 5//20 29//20 3//20
f 3//21 29//21 30//21
f 3//22 31//22 26//22
f 2//23 32//23 3//23
f 12//24 32//24 14//24
f 15//25 32//25 2//25
f 14//24 32//24 15//24
f 4//26 20//26 6//26
f 21//27 20//27 4//27
f 33//28 34//28 1//28
f 35//29 10//29 7//29
f 36//30 37//30 7//30
f 7//31 37//31 35//31
f 7//32 38//32 36//32
f 36//33 38//33 39//33
f 18//34 40//34 2//34
f 1//35 41//35 2//35
f 2//36 41//36 16//36
f 17//37 42//37 19//37
f 17//38 19//38 2//38
f 40//39 7//39 2//39
f 11//40 43//40 12//40
f 13//41 43//41 11//41
f 12//42 43//42 32//42
f 23//43 44//43 45//43
f 25//43 44//43 23//43
f 44//44 46//44 39//44
f 25//44 46//44 44//44
f 45//45 47//45 48//45
f 45//46 48//46 23//46
f 24//47 22//47 21//47
f 23//48 49//48 24//48
f 28//49 33//49 1//49
f 30//50 31//50 3//50
f 32//51 43//51 3//51
f 33//52 38//52 34//52
f 50//53 38//53 33//53
f 10//54 51//54 13//54
f 43//55 51//55 52//55
f 13//56 51//56 43//56
f 52//57 51//57 35//57
f 35//58 51//58 10//58
f 37//59 52//59 35//59
f 18//60 19//60 40//60
f 42//37 40//37 19//37
f 1//61 34//61 41//61
f 3//62 43//62 4//62
f 4//63 43//63 53//63
f 39//64 38//64 44//64
f 44//65 38//65 45//65
f 46//66 54//66 39//66
f 39//66 54//66 36//66
f 36//67 54//67 37//67
f 37//68 54//68 52//68
f 25//69 24//69 46//69
f 48//70 55//70 49//70
f 55//71 56//71 49//71
f 48//72 49//72 23//72
f 57//73 58//73 31//73
f 31//74 58//74 26//74
f 26//75 58//75 27//75
f 27//76 58//76 50//76
f 6//77 59//77 5//77
f 5//77 59//77 29//77
f 29//78 59//78 30//78
f 30//79 59//79 60//79
f 6//80 60//80 59//80
f 20//81 60//81 6//81
f 60//82 57//82 30//82
f 30//83 57//83 31//83
f 34//84 38//84 42//84
f 38//85 61//85 45//85
f 34//86 42//86 41//86
f 41//87 42//87 16//87
f 16//88 42//88 17//88
f 46//89 24//89 54//89
f 61//90 47//90 45//90
f 56//91 24//91 49//91
f 22//92 56//92 20//92
f 38//93 56//93 61//93
f 22//94 24//94 56//94
f 48//95 62//95 55//95
f 57//96 60//96 58//96
f 50//97 28//97 27//97
f 33//98 28//98 50//98
f 38//99 20//99 56//99
f 60//100 38//100 58//100
f 58//101 38//101 50//101
f 38//102 40//102 42//102
f 54//103 24//103 52//103
f 52//104 24//104 43//104
f 47//105 62//105 48//105
f 62//106 47//106 61//106
f 56//107 55//107 61//107
f 61//108 55//108 62//108
f 60//109 20//109 38//109
f 40//110 38//110 7//110
f 53//111 21//111 4//111
f 24//112 21//112 43//112
f 43//113 21//113 53//113
